Original Ripper: ~WarrioR~
rencode rip-prince26121991
 
http://i36.photobucket.com/albums/e10/niks707973/Epi02DIDLilMasters-01stMay10-XviD-H.jpg


Code:

Format                           : Matroska
File size                        : 173 MiB
Duration                         : 58mn 19s
Overall bit rate                 : 415 Kbps
Encoded date                     : UTC 2010-05-03 12:27:31
Writing application              : mkvmerge v3.2.0 ('Beginnings') built on Feb 12 2010 16:46:17
Writing library                  : libebml v0.7.9 + libmatroska v0.8.1

Video
ID                               : 1
Format                           : AVC
Format/Info                      : Advanced Video Codec
Format profile                   : High@L2.1
Format settings, CABAC           : Yes
Format settings, ReFrames        : 3 frames
Muxing mode                      : Container profile=Unknown@2.1
Codec ID                         : V_MPEG4/ISO/AVC
Duration                         : 58mn 19s
Bit rate                         : 359 Kbps
Nominal bit rate                 : 367 Kbps
Width                            : 512 pixels
Height                           : 384 pixels
Display aspect ratio             : 4:3
Frame rate                       : 25.000 fps
Resolution                       : 24 bits
Colorimetry                      : 4:2:0
Scan type                        : Progressive
Bits/(Pixel*Frame)               : 0.073
Stream size                      : 150 MiB (86%)
Writing library                  : x264 core 80 r1376M 3feaec2
Audio
ID                               : 2
Format                           : MPEG Audio
Format version                   : Version 2
Format profile                   : Layer 3
Format_Settings_Mode             : Joint stereo
Codec ID                         : A_MPEG/L3
Codec ID/Hint                    : MP3
Duration                         : 58mn 19s
Bit rate mode                    : Constant
Bit rate                         : 48.0 Kbps
Channel(s)                       : 2 channels
Sampling rate                    : 16.0 KHz
Resolution                       : 16 bits
Stream size                      : 20.0 MiB (12%)
Writing library                  : LAME3.98r
Encoding settings                : -m j -V 4 -q 2 -lowpass 7.5 -b 48

